<mxfile host="app.diagrams.net" modified="2023-03-31T17:48:36.104Z" agent="Mozilla/5.0 (Windows NT 10.0; Win64; x64) AppleWebKit/537.36 (KHTML, like Gecko) Chrome/111.0.0.0 Safari/537.36" etag="dEz4v4kCzmPFxuZI-fZ9" version="21.1.1" type="device">
  <diagram name="Página-1" id="cH-x13HwFs21BhQI_f-g">
    <mxGraphModel dx="860" dy="387" grid="1" gridSize="10" guides="1" tooltips="1" connect="1" arrows="1" fold="1" page="1" pageScale="1" pageWidth="827" pageHeight="1169" math="0" shadow="0">
      <root>
        <mxCell id="0" />
        <mxCell id="1" parent="0" />
        <mxCell id="jNIrFvxlPCRtMrD1-WWE-5" value="" style="edgeStyle=orthogonalEdgeStyle;rounded=0;orthogonalLoop=1;jettySize=auto;html=1;" edge="1" parent="1" source="jNIrFvxlPCRtMrD1-WWE-1" target="jNIrFvxlPCRtMrD1-WWE-4">
          <mxGeometry relative="1" as="geometry" />
        </mxCell>
        <mxCell id="jNIrFvxlPCRtMrD1-WWE-1" value="Insira o seu mês, dia e ano de nascimento:" style="strokeWidth=2;html=1;shape=mxgraph.flowchart.display;whiteSpace=wrap;" vertex="1" parent="1">
          <mxGeometry x="315" y="200" width="130" height="90" as="geometry" />
        </mxCell>
        <mxCell id="jNIrFvxlPCRtMrD1-WWE-12" value="" style="edgeStyle=orthogonalEdgeStyle;rounded=0;orthogonalLoop=1;jettySize=auto;html=1;" edge="1" parent="1" source="jNIrFvxlPCRtMrD1-WWE-2" target="jNIrFvxlPCRtMrD1-WWE-1">
          <mxGeometry relative="1" as="geometry" />
        </mxCell>
        <mxCell id="jNIrFvxlPCRtMrD1-WWE-2" value="Início" style="strokeWidth=2;html=1;shape=mxgraph.flowchart.start_1;whiteSpace=wrap;" vertex="1" parent="1">
          <mxGeometry x="330" y="100" width="100" height="60" as="geometry" />
        </mxCell>
        <mxCell id="jNIrFvxlPCRtMrD1-WWE-3" value="Fim" style="strokeWidth=2;html=1;shape=mxgraph.flowchart.start_1;whiteSpace=wrap;" vertex="1" parent="1">
          <mxGeometry x="314" y="570" width="100" height="60" as="geometry" />
        </mxCell>
        <mxCell id="jNIrFvxlPCRtMrD1-WWE-8" style="edgeStyle=orthogonalEdgeStyle;rounded=0;orthogonalLoop=1;jettySize=auto;html=1;entryX=0.668;entryY=-0.03;entryDx=0;entryDy=0;entryPerimeter=0;" edge="1" parent="1" source="jNIrFvxlPCRtMrD1-WWE-4" target="jNIrFvxlPCRtMrD1-WWE-7">
          <mxGeometry relative="1" as="geometry" />
        </mxCell>
        <mxCell id="jNIrFvxlPCRtMrD1-WWE-9" style="edgeStyle=orthogonalEdgeStyle;rounded=0;orthogonalLoop=1;jettySize=auto;html=1;" edge="1" parent="1" source="jNIrFvxlPCRtMrD1-WWE-4" target="jNIrFvxlPCRtMrD1-WWE-6">
          <mxGeometry relative="1" as="geometry" />
        </mxCell>
        <mxCell id="jNIrFvxlPCRtMrD1-WWE-4" value="É uma data válida? (todos meses = 31 dias, ano = 2013)" style="rounded=1;whiteSpace=wrap;html=1;absoluteArcSize=1;arcSize=14;strokeWidth=2;" vertex="1" parent="1">
          <mxGeometry x="330" y="330" width="100" height="100" as="geometry" />
        </mxCell>
        <mxCell id="jNIrFvxlPCRtMrD1-WWE-14" style="edgeStyle=orthogonalEdgeStyle;rounded=0;orthogonalLoop=1;jettySize=auto;html=1;entryX=0;entryY=0.5;entryDx=0;entryDy=0;entryPerimeter=0;" edge="1" parent="1" source="jNIrFvxlPCRtMrD1-WWE-6" target="jNIrFvxlPCRtMrD1-WWE-3">
          <mxGeometry relative="1" as="geometry" />
        </mxCell>
        <mxCell id="jNIrFvxlPCRtMrD1-WWE-6" value="Data válida" style="strokeWidth=2;html=1;shape=mxgraph.flowchart.display;whiteSpace=wrap;" vertex="1" parent="1">
          <mxGeometry x="230" y="470" width="100" height="60" as="geometry" />
        </mxCell>
        <mxCell id="jNIrFvxlPCRtMrD1-WWE-13" style="edgeStyle=orthogonalEdgeStyle;rounded=0;orthogonalLoop=1;jettySize=auto;html=1;entryX=1;entryY=0.5;entryDx=0;entryDy=0;entryPerimeter=0;" edge="1" parent="1" source="jNIrFvxlPCRtMrD1-WWE-7" target="jNIrFvxlPCRtMrD1-WWE-3">
          <mxGeometry relative="1" as="geometry" />
        </mxCell>
        <mxCell id="jNIrFvxlPCRtMrD1-WWE-7" value="Data inválida" style="strokeWidth=2;html=1;shape=mxgraph.flowchart.display;whiteSpace=wrap;" vertex="1" parent="1">
          <mxGeometry x="414" y="470" width="100" height="60" as="geometry" />
        </mxCell>
        <mxCell id="jNIrFvxlPCRtMrD1-WWE-10" value="Sim" style="text;html=1;align=center;verticalAlign=middle;resizable=0;points=[];autosize=1;strokeColor=none;fillColor=none;" vertex="1" parent="1">
          <mxGeometry x="280" y="420" width="40" height="30" as="geometry" />
        </mxCell>
        <mxCell id="jNIrFvxlPCRtMrD1-WWE-11" value="Não" style="text;html=1;align=center;verticalAlign=middle;resizable=0;points=[];autosize=1;strokeColor=none;fillColor=none;" vertex="1" parent="1">
          <mxGeometry x="435" y="420" width="50" height="30" as="geometry" />
        </mxCell>
      </root>
    </mxGraphModel>
  </diagram>
</mxfile>
